<svg width="245" height="78" viewBox="0 0 245 78" fill="none" xmlns="http://www.w3.org/2000/svg">
<mask id="path-1-inside-1" fill="white">
<path d="M48.4531 22.4219C48.0156 22.4219 47.6406 22.2031 47.3281 21.7656C47.0469 21.3281 46.5469 20.375 45.8281 18.9062C45.1094 17.4062 44.0469 15.9375 42.6406 14.5C41.2344 13.0312 39.6562 11.8281 37.9062 10.8906C34.5312 9.10938 30.3281 8.21875 25.2969 8.21875C20.6094 8.21875 17.0156 9.21875 14.5156 11.2188C12.3594 12.9062 11.2812 15.0625 11.2812 17.6875C11.2812 21 12.3125 23.7344 14.375 25.8906C16.9062 28.5469 20.9531 30.6094 26.5156 32.0781C32.1094 33.5156 36.5938 35.0156 39.9688 36.5781C43.375 38.1094 46.125 39.8438 48.2188 41.7812C52.25 45.4375 54.2656 50.0938 54.2656 55.75C54.2656 62.2812 51.9375 67.4688 47.2812 71.3125C42.5625 75.1562 36.0781 77.0781 27.8281 77.0781C19.4219 77.0781 11.9688 75.5625 5.46875 72.5312L0.171875 70.0469V53.4531C0.171875 49.6406 0.828125 47.7344 2.14062 47.7344C3.04688 47.7344 3.64062 48.6719 3.92188 50.5469C4.57812 56.4844 7.375 61.3906 12.3125 65.2656C16.8438 68.7969 21.9062 70.5625 27.5 70.5625C38.4688 70.5625 43.9531 66.8438 43.9531 59.4062C43.9531 56 42.875 53.1406 40.7188 50.8281C37.8125 47.7344 32.9219 45.3906 26.0469 43.7969C17.6719 41.8906 11.3594 38.9062 7.10938 34.8438C3.23438 31.1562 1.29688 26.7656 1.29688 21.6719C1.29688 16.1406 3.3125 11.5156 7.34375 7.79688C11.9688 3.51562 18.3906 1.375 26.6094 1.375C32.0156 1.375 36.4688 2.09375 39.9688 3.53125C40.625 3.8125 40.9844 3.95312 41.0469 3.95312C41.1406 3.95312 41.25 3.9375 41.375 3.90625C41.5312 3.875 41.7031 3.78125 41.8906 3.625C42.2031 3.40625 42.625 2.9375 43.1562 2.21875C44.1562 0.90625 44.9219 0.25 45.4531 0.25C46.7031 0.25 47.3594 1.0625 47.4219 2.6875C47.5781 7.25 47.9375 10.7031 48.5 13.0469C49.4062 16.8281 49.8594 19.3438 49.8594 20.5938C49.8594 21.8125 49.3906 22.4219 48.4531 22.4219Z"/>
<path d="M101.581 48.2031C98.4875 48.2031 94.8156 47.6094 90.5656 46.4219V61.1875C90.5656 65.1875 90.8156 67.7969 91.3156 69.0156C91.8469 70.2344 92.4563 71.0469 93.1438 71.4531C93.8313 71.8594 94.5656 72.0625 95.3469 72.0625C96.1594 72.0625 96.7531 72.0469 97.1281 72.0156C97.5031 71.9531 97.8625 71.9062 98.2063 71.875L99.1906 71.6875C99.5344 71.6562 99.9406 71.6406 100.409 71.6406C100.909 71.6406 101.316 71.8906 101.628 72.3906C101.941 72.8594 102.097 73.2812 102.097 73.6562C102.097 74 102.003 74.3438 101.816 74.6875C101.628 75.0312 101.331 75.3438 100.925 75.625C99.9875 76.3125 98.7844 76.6562 97.3156 76.6562C95.8781 76.6562 94.6281 76.625 93.5656 76.5625C92.5344 76.5 91.55 76.4219 90.6125 76.3281C86.8938 75.9531 83.9563 75.875 81.8 76.0938C76.3313 76.7188 73.1438 76.8594 72.2375 76.5156C71.3313 76.2031 70.7063 75.9062 70.3625 75.625C69.7688 75.0938 69.4719 74.5469 69.4719 73.9844C69.4719 73.3906 69.6281 72.875 69.9406 72.4375C70.2531 72 70.6906 71.7812 71.2531 71.7812L74.3 72.0625C76.425 72.0625 77.8469 71.2188 78.5656 69.5312C79.2219 68 79.55 65.2188 79.55 61.1875V18.2031C79.55 14.0469 79.2531 11.3281 78.6594 10.0469C78.0969 8.76562 77.4094 7.89062 76.5969 7.42188C75.8156 6.95312 74.8 6.71875 73.55 6.71875L71.2531 7C70.6906 7 70.2531 6.79688 69.9406 6.39062C69.6281 5.98438 69.4719 5.57812 69.4719 5.17188C69.4719 4.76562 69.5344 4.40625 69.6594 4.09375C69.8156 3.75 70.05 3.4375 70.3625 3.15625C71.175 2.46875 72.2844 2.125 73.6906 2.125C75.0969 2.125 76.2375 2.17188 77.1125 2.26562C78.0188 2.32812 78.8625 2.40625 79.6438 2.5C82.05 2.71875 84.0188 2.82812 85.55 2.82812C87.0813 2.82812 88.3781 2.79688 89.4406 2.73438C90.5344 2.64062 91.5344 2.54688 92.4406 2.45312C93.3469 2.35938 94.2063 2.25 95.0188 2.125C95.8313 1.96875 96.7063 1.84375 97.6438 1.75C100.144 1.5 103.144 1.375 106.644 1.375C110.175 1.375 113.597 1.92188 116.909 3.01562C120.222 4.10938 122.925 5.625 125.019 7.5625C128.956 11.25 130.925 16.4219 130.925 23.0781C130.925 31.0781 128.019 37.375 122.206 41.9688C116.925 46.125 110.05 48.2031 101.581 48.2031ZM99.9406 8.26562C93.6906 8.26562 90.5656 10.0469 90.5656 13.6094V38.3594C94.5656 40.5469 98.925 41.6406 103.644 41.6406C108.488 41.6406 112.269 40.2188 114.988 37.375C117.613 34.6562 118.925 30.9844 118.925 26.3594C118.925 17.2031 115.175 11.5156 107.675 9.29688C105.331 8.60938 102.753 8.26562 99.9406 8.26562Z"/>
<path d="M199.897 56.9688C200.647 56.9688 201.022 57.3906 201.022 58.2344C201.022 58.5781 200.881 59.0469 200.6 59.6406C200.319 60.2031 199.975 61.375 199.569 63.1562C198.663 67.4062 198.209 70.3594 198.209 72.0156C198.209 73.6406 198.256 74.9688 198.35 76H161.834C159.678 76 157.569 76.0781 155.506 76.2344L150.913 76.5625C149.881 76.6562 148.834 76.7031 147.772 76.7031C146.709 76.7031 145.897 76.5938 145.334 76.375C144.772 76.1875 144.319 75.9531 143.975 75.6719C143.381 75.1406 143.084 74.5938 143.084 74.0312C143.084 73.4375 143.241 72.9219 143.553 72.4844C143.866 72.0156 144.303 71.7812 144.866 71.7812L147.913 72.1094C150.069 72.1094 151.522 71.1562 152.272 69.25C152.866 67.75 153.163 64.8438 153.163 60.5312V17.6406C153.163 13.5781 152.897 10.9531 152.366 9.76562C151.866 8.54688 151.272 7.73438 150.584 7.32812C149.897 6.92188 149.006 6.71875 147.913 6.71875L144.866 7C144.303 7 143.866 6.79688 143.553 6.39062C143.241 5.95312 143.084 5.54688 143.084 5.17188C143.084 4.79688 143.147 4.45312 143.272 4.14062C143.428 3.79688 143.663 3.46875 143.975 3.15625C144.756 2.46875 145.85 2.125 147.256 2.125C148.663 2.125 149.834 2.17188 150.772 2.26562C151.741 2.32812 152.647 2.40625 153.491 2.5L155.975 2.6875C156.788 2.78125 157.678 2.82812 158.647 2.82812C159.647 2.82812 160.569 2.78125 161.413 2.6875L163.897 2.5C166.428 2.25 168.272 2.125 169.428 2.125C170.584 2.125 171.444 2.23438 172.006 2.45312C172.6 2.64062 173.069 2.875 173.413 3.15625C174.038 3.71875 174.35 4.29688 174.35 4.89062C174.35 5.45312 174.178 5.95312 173.834 6.39062C173.522 6.79688 173.084 7 172.522 7L169.475 6.71875C167.381 6.71875 165.944 7.5625 165.163 9.25C164.506 10.75 164.178 13.5469 164.178 17.6406V63.625C164.178 67.8438 165.631 69.9531 168.538 69.9531H178.053C181.709 69.9531 184.553 69.4062 186.584 68.3125C188.647 67.1875 190.475 65.8906 192.069 64.4219C193.694 62.9219 195.506 60.9688 197.506 58.5625C198.506 57.5 199.303 56.9688 199.897 56.9688Z"/>
<path d="M239.619 72.0625L242.666 71.7812C243.259 71.7812 243.697 72 243.978 72.4375C244.291 72.875 244.447 73.2812 244.447 73.6562C244.447 74 244.369 74.3438 244.212 74.6875C244.087 75.0312 243.869 75.3438 243.556 75.625C242.744 76.3125 241.634 76.6562 240.228 76.6562C238.853 76.6562 237.681 76.625 236.712 76.5625C235.775 76.5 234.884 76.4219 234.041 76.3281C230.572 75.9531 227.775 75.875 225.65 76.0938C222.369 76.4688 219.994 76.6562 218.525 76.6562C217.087 76.6562 216.072 76.5469 215.478 76.3281C214.916 76.1406 214.462 75.9062 214.119 75.625C213.525 75.0938 213.228 74.5469 213.228 73.9844C213.228 73.3906 213.384 72.875 213.697 72.4375C214.009 72 214.462 71.7812 215.056 71.7812L218.056 72.0625C220.181 72.0625 221.603 71.2188 222.322 69.5312C222.978 68 223.306 65.2188 223.306 61.1875V17.6406C223.306 13.5781 223.041 10.9531 222.509 9.76562C222.009 8.54688 221.416 7.73438 220.728 7.32812C220.041 6.92188 219.15 6.71875 218.056 6.71875L215.056 7C214.462 7 214.009 6.79688 213.697 6.39062C213.384 5.95312 213.228 5.54688 213.228 5.17188C213.228 4.79688 213.291 4.45312 213.416 4.14062C213.572 3.79688 213.806 3.46875 214.119 3.15625C214.9 2.46875 215.994 2.125 217.4 2.125C218.806 2.125 219.994 2.17188 220.962 2.26562C221.931 2.32812 222.837 2.40625 223.681 2.5L226.166 2.6875C226.978 2.78125 227.869 2.82812 228.837 2.82812C229.837 2.82812 230.744 2.78125 231.556 2.6875L234.041 2.5C236.572 2.25 238.416 2.125 239.572 2.125C240.759 2.125 241.634 2.23438 242.197 2.45312C242.759 2.64062 243.212 2.875 243.556 3.15625C244.15 3.71875 244.447 4.29688 244.447 4.89062C244.447 6.29688 243.853 7 242.666 7L239.619 6.71875C237.494 6.71875 236.072 7.5625 235.353 9.25C234.697 10.7812 234.369 13.5781 234.369 17.6406V61.1875C234.369 65.2188 234.619 67.8438 235.119 69.0625C235.65 70.25 236.259 71.0469 236.947 71.4531C237.634 71.8594 238.525 72.0625 239.619 72.0625Z"/>
</mask>
<path d="M48.4531 22.4219C48.0156 22.4219 47.6406 22.2031 47.3281 21.7656C47.0469 21.3281 46.5469 20.375 45.8281 18.9062C45.1094 17.4062 44.0469 15.9375 42.6406 14.5C41.2344 13.0312 39.6562 11.8281 37.9062 10.8906C34.5312 9.10938 30.3281 8.21875 25.2969 8.21875C20.6094 8.21875 17.0156 9.21875 14.5156 11.2188C12.3594 12.9062 11.2812 15.0625 11.2812 17.6875C11.2812 21 12.3125 23.7344 14.375 25.8906C16.9062 28.5469 20.9531 30.6094 26.5156 32.0781C32.1094 33.5156 36.5938 35.0156 39.9688 36.5781C43.375 38.1094 46.125 39.8438 48.2188 41.7812C52.25 45.4375 54.2656 50.0938 54.2656 55.75C54.2656 62.2812 51.9375 67.4688 47.2812 71.3125C42.5625 75.1562 36.0781 77.0781 27.8281 77.0781C19.4219 77.0781 11.9688 75.5625 5.46875 72.5312L0.171875 70.0469V53.4531C0.171875 49.6406 0.828125 47.7344 2.14062 47.7344C3.04688 47.7344 3.64062 48.6719 3.92188 50.5469C4.57812 56.4844 7.375 61.3906 12.3125 65.2656C16.8438 68.7969 21.9062 70.5625 27.5 70.5625C38.4688 70.5625 43.9531 66.8438 43.9531 59.4062C43.9531 56 42.875 53.1406 40.7188 50.8281C37.8125 47.7344 32.9219 45.3906 26.0469 43.7969C17.6719 41.8906 11.3594 38.9062 7.10938 34.8438C3.23438 31.1562 1.29688 26.7656 1.29688 21.6719C1.29688 16.1406 3.3125 11.5156 7.34375 7.79688C11.9688 3.51562 18.3906 1.375 26.6094 1.375C32.0156 1.375 36.4688 2.09375 39.9688 3.53125C40.625 3.8125 40.9844 3.95312 41.0469 3.95312C41.1406 3.95312 41.25 3.9375 41.375 3.90625C41.5312 3.875 41.7031 3.78125 41.8906 3.625C42.2031 3.40625 42.625 2.9375 43.1562 2.21875C44.1562 0.90625 44.9219 0.25 45.4531 0.25C46.7031 0.25 47.3594 1.0625 47.4219 2.6875C47.5781 7.25 47.9375 10.7031 48.5 13.0469C49.4062 16.8281 49.8594 19.3438 49.8594 20.5938C49.8594 21.8125 49.3906 22.4219 48.4531 22.4219Z" stroke="#26C0AB" stroke-width="4" mask="url(#path-1-inside-1)"/>
<path d="M101.581 48.2031C98.4875 48.2031 94.8156 47.6094 90.5656 46.4219V61.1875C90.5656 65.1875 90.8156 67.7969 91.3156 69.0156C91.8469 70.2344 92.4563 71.0469 93.1438 71.4531C93.8313 71.8594 94.5656 72.0625 95.3469 72.0625C96.1594 72.0625 96.7531 72.0469 97.1281 72.0156C97.5031 71.9531 97.8625 71.9062 98.2063 71.875L99.1906 71.6875C99.5344 71.6562 99.9406 71.6406 100.409 71.6406C100.909 71.6406 101.316 71.8906 101.628 72.3906C101.941 72.8594 102.097 73.2812 102.097 73.6562C102.097 74 102.003 74.3438 101.816 74.6875C101.628 75.0312 101.331 75.3438 100.925 75.625C99.9875 76.3125 98.7844 76.6562 97.3156 76.6562C95.8781 76.6562 94.6281 76.625 93.5656 76.5625C92.5344 76.5 91.55 76.4219 90.6125 76.3281C86.8938 75.9531 83.9563 75.875 81.8 76.0938C76.3313 76.7188 73.1438 76.8594 72.2375 76.5156C71.3313 76.2031 70.7063 75.9062 70.3625 75.625C69.7688 75.0938 69.4719 74.5469 69.4719 73.9844C69.4719 73.3906 69.6281 72.875 69.9406 72.4375C70.2531 72 70.6906 71.7812 71.2531 71.7812L74.3 72.0625C76.425 72.0625 77.8469 71.2188 78.5656 69.5312C79.2219 68 79.55 65.2188 79.55 61.1875V18.2031C79.55 14.0469 79.2531 11.3281 78.6594 10.0469C78.0969 8.76562 77.4094 7.89062 76.5969 7.42188C75.8156 6.95312 74.8 6.71875 73.55 6.71875L71.2531 7C70.6906 7 70.2531 6.79688 69.9406 6.39062C69.6281 5.98438 69.4719 5.57812 69.4719 5.17188C69.4719 4.76562 69.5344 4.40625 69.6594 4.09375C69.8156 3.75 70.05 3.4375 70.3625 3.15625C71.175 2.46875 72.2844 2.125 73.6906 2.125C75.0969 2.125 76.2375 2.17188 77.1125 2.26562C78.0188 2.32812 78.8625 2.40625 79.6438 2.5C82.05 2.71875 84.0188 2.82812 85.55 2.82812C87.0813 2.82812 88.3781 2.79688 89.4406 2.73438C90.5344 2.64062 91.5344 2.54688 92.4406 2.45312C93.3469 2.35938 94.2063 2.25 95.0188 2.125C95.8313 1.96875 96.7063 1.84375 97.6438 1.75C100.144 1.5 103.144 1.375 106.644 1.375C110.175 1.375 113.597 1.92188 116.909 3.01562C120.222 4.10938 122.925 5.625 125.019 7.5625C128.956 11.25 130.925 16.4219 130.925 23.0781C130.925 31.0781 128.019 37.375 122.206 41.9688C116.925 46.125 110.05 48.2031 101.581 48.2031ZM99.9406 8.26562C93.6906 8.26562 90.5656 10.0469 90.5656 13.6094V38.3594C94.5656 40.5469 98.925 41.6406 103.644 41.6406C108.488 41.6406 112.269 40.2188 114.988 37.375C117.613 34.6562 118.925 30.9844 118.925 26.3594C118.925 17.2031 115.175 11.5156 107.675 9.29688C105.331 8.60938 102.753 8.26562 99.9406 8.26562Z" stroke="#26C0AB" stroke-width="4" mask="url(#path-1-inside-1)"/>
<path d="M199.897 56.9688C200.647 56.9688 201.022 57.3906 201.022 58.2344C201.022 58.5781 200.881 59.0469 200.6 59.6406C200.319 60.2031 199.975 61.375 199.569 63.1562C198.663 67.4062 198.209 70.3594 198.209 72.0156C198.209 73.6406 198.256 74.9688 198.35 76H161.834C159.678 76 157.569 76.0781 155.506 76.2344L150.913 76.5625C149.881 76.6562 148.834 76.7031 147.772 76.7031C146.709 76.7031 145.897 76.5938 145.334 76.375C144.772 76.1875 144.319 75.9531 143.975 75.6719C143.381 75.1406 143.084 74.5938 143.084 74.0312C143.084 73.4375 143.241 72.9219 143.553 72.4844C143.866 72.0156 144.303 71.7812 144.866 71.7812L147.913 72.1094C150.069 72.1094 151.522 71.1562 152.272 69.25C152.866 67.75 153.163 64.8438 153.163 60.5312V17.6406C153.163 13.5781 152.897 10.9531 152.366 9.76562C151.866 8.54688 151.272 7.73438 150.584 7.32812C149.897 6.92188 149.006 6.71875 147.913 6.71875L144.866 7C144.303 7 143.866 6.79688 143.553 6.39062C143.241 5.95312 143.084 5.54688 143.084 5.17188C143.084 4.79688 143.147 4.45312 143.272 4.14062C143.428 3.79688 143.663 3.46875 143.975 3.15625C144.756 2.46875 145.85 2.125 147.256 2.125C148.663 2.125 149.834 2.17188 150.772 2.26562C151.741 2.32812 152.647 2.40625 153.491 2.5L155.975 2.6875C156.788 2.78125 157.678 2.82812 158.647 2.82812C159.647 2.82812 160.569 2.78125 161.413 2.6875L163.897 2.5C166.428 2.25 168.272 2.125 169.428 2.125C170.584 2.125 171.444 2.23438 172.006 2.45312C172.6 2.64062 173.069 2.875 173.413 3.15625C174.038 3.71875 174.35 4.29688 174.35 4.89062C174.35 5.45312 174.178 5.95312 173.834 6.39062C173.522 6.79688 173.084 7 172.522 7L169.475 6.71875C167.381 6.71875 165.944 7.5625 165.163 9.25C164.506 10.75 164.178 13.5469 164.178 17.6406V63.625C164.178 67.8438 165.631 69.9531 168.538 69.9531H178.053C181.709 69.9531 184.553 69.4062 186.584 68.3125C188.647 67.1875 190.475 65.8906 192.069 64.4219C193.694 62.9219 195.506 60.9688 197.506 58.5625C198.506 57.5 199.303 56.9688 199.897 56.9688Z" stroke="#26C0AB" stroke-width="4" mask="url(#path-1-inside-1)"/>
<path d="M239.619 72.0625L242.666 71.7812C243.259 71.7812 243.697 72 243.978 72.4375C244.291 72.875 244.447 73.2812 244.447 73.6562C244.447 74 244.369 74.3438 244.212 74.6875C244.087 75.0312 243.869 75.3438 243.556 75.625C242.744 76.3125 241.634 76.6562 240.228 76.6562C238.853 76.6562 237.681 76.625 236.712 76.5625C235.775 76.5 234.884 76.4219 234.041 76.3281C230.572 75.9531 227.775 75.875 225.65 76.0938C222.369 76.4688 219.994 76.6562 218.525 76.6562C217.087 76.6562 216.072 76.5469 215.478 76.3281C214.916 76.1406 214.462 75.9062 214.119 75.625C213.525 75.0938 213.228 74.5469 213.228 73.9844C213.228 73.3906 213.384 72.875 213.697 72.4375C214.009 72 214.462 71.7812 215.056 71.7812L218.056 72.0625C220.181 72.0625 221.603 71.2188 222.322 69.5312C222.978 68 223.306 65.2188 223.306 61.1875V17.6406C223.306 13.5781 223.041 10.9531 222.509 9.76562C222.009 8.54688 221.416 7.73438 220.728 7.32812C220.041 6.92188 219.15 6.71875 218.056 6.71875L215.056 7C214.462 7 214.009 6.79688 213.697 6.39062C213.384 5.95312 213.228 5.54688 213.228 5.17188C213.228 4.79688 213.291 4.45312 213.416 4.14062C213.572 3.79688 213.806 3.46875 214.119 3.15625C214.9 2.46875 215.994 2.125 217.4 2.125C218.806 2.125 219.994 2.17188 220.962 2.26562C221.931 2.32812 222.837 2.40625 223.681 2.5L226.166 2.6875C226.978 2.78125 227.869 2.82812 228.837 2.82812C229.837 2.82812 230.744 2.78125 231.556 2.6875L234.041 2.5C236.572 2.25 238.416 2.125 239.572 2.125C240.759 2.125 241.634 2.23438 242.197 2.45312C242.759 2.64062 243.212 2.875 243.556 3.15625C244.15 3.71875 244.447 4.29688 244.447 4.89062C244.447 6.29688 243.853 7 242.666 7L239.619 6.71875C237.494 6.71875 236.072 7.5625 235.353 9.25C234.697 10.7812 234.369 13.5781 234.369 17.6406V61.1875C234.369 65.2188 234.619 67.8438 235.119 69.0625C235.65 70.25 236.259 71.0469 236.947 71.4531C237.634 71.8594 238.525 72.0625 239.619 72.0625Z" stroke="#26C0AB" stroke-width="4" mask="url(#path-1-inside-1)"/>
</svg>
