<svg width="301" height="78" viewBox="0 0 301 78" fill="none" xmlns="http://www.w3.org/2000/svg">
<mask id="path-1-inside-1" fill="white">
<path d="M1.42188 22.1094C0.671875 22.1094 0.296875 21.5625 0.296875 20.4688C0.296875 19.375 0.359375 18.375 0.484375 17.4688C0.640625 16.5625 0.828125 15.7031 1.04688 14.8906C1.26562 14.0781 1.51562 13.2812 1.79688 12.5L2.6875 10.0625C3.4375 7.9375 3.95312 6.03125 4.23438 4.34375C4.51562 2.65625 4.8125 1.65625 5.125 1.34375C5.4375 1 5.78125 0.828125 6.15625 0.828125C6.78125 0.828125 7.59375 1.48438 8.59375 2.79688C9.09375 3.39062 9.82812 3.71875 10.7969 3.78125C11.7969 3.8125 12.75 3.82812 13.6562 3.82812H61.0938C63.0625 3.82812 64.5469 3.48438 65.5469 2.79688C66.5469 2.10938 67.2344 1.60938 67.6094 1.29688C67.9844 0.984375 68.2969 0.828125 68.5469 0.828125C68.7969 0.828125 69.0156 0.84375 69.2031 0.875C69.4219 0.90625 69.625 0.984375 69.8125 1.10938C70.3438 1.42188 70.375 2.125 69.9062 3.21875C69.4688 4.28125 68.9688 5.65625 68.4062 7.34375C67.8438 9 67.3281 10.625 66.8594 12.2188C66.0156 15.125 65.4219 17.375 65.0781 18.9688C64.6406 21.1562 64.0312 22.25 63.25 22.25C62.4375 22.25 61.9375 21.7656 61.75 20.7969C61.5938 19.7969 61.4062 18.9219 61.1875 18.1719C60.9688 17.3906 60.6875 16.6875 60.3438 16.0625C58.2188 12.3125 51.625 10.4375 40.5625 10.4375V61.25C40.5625 65.375 40.8125 68.125 41.3125 69.5C41.8438 70.875 42.4531 71.8281 43.1406 72.3594C43.8281 72.8594 44.5625 73.1094 45.3438 73.1094C46.1562 73.1094 46.75 73.0938 47.125 73.0625C48.0312 72.9375 48.6875 72.8438 49.0938 72.7812C49.5 72.7188 49.9375 72.6875 50.4062 72.6875C50.9062 72.6875 51.3125 72.9375 51.625 73.4375C51.9375 73.9062 52.0938 74.3281 52.0938 74.7031C52.0938 75.0469 52 75.3906 51.8125 75.7344C51.625 76.0781 51.3281 76.3906 50.9219 76.6719C49.9219 77.3594 48.7031 77.7031 47.2656 77.7031C45.8594 77.7031 44.625 77.6562 43.5625 77.5625C42.5312 77.5 41.5625 77.4375 40.6562 77.375L37.9375 77.0938C37.0625 77.0312 36.1094 77 35.0781 77C34.0469 77 33.0938 77.0312 32.2188 77.0938L29.5 77.375C26.7812 77.5938 24.7812 77.7031 23.5 77.7031C22.25 77.7031 21.3125 77.5938 20.6875 77.375C20.0938 77.1875 19.5938 76.9531 19.1875 76.6719C18.4062 76.1094 18.0156 75.5469 18.0156 74.9844C18.0156 74.4219 18.1719 73.9062 18.4844 73.4375C18.7969 72.9375 19.2031 72.6875 19.7031 72.6875C20.2031 72.6875 20.6094 72.7188 20.9219 72.7812C21.2656 72.8125 21.5938 72.8438 21.9062 72.875C22.9062 73.0312 23.8281 73.1094 24.6719 73.1094C25.5156 73.1094 26.2812 72.8594 26.9688 72.3594C27.6562 71.8594 28.1875 71.1094 28.5625 70.1094C29.2188 68.3594 29.5469 65.4062 29.5469 61.25V10.3906C23.3594 10.3906 18.9062 10.8281 16.1875 11.7031C15.7812 11.8281 15 12.0312 13.8438 12.3125C12.6875 12.5938 11.375 13.2969 9.90625 14.4219C8.4375 15.5156 7.14062 16.6406 6.01562 17.7969C4.89062 18.9219 3.9375 19.9219 3.15625 20.7969C2.40625 21.6719 1.82812 22.1094 1.42188 22.1094Z"/>
<path d="M78.4094 22.1094C77.6594 22.1094 77.2844 21.5625 77.2844 20.4688C77.2844 19.375 77.3469 18.375 77.4719 17.4688C77.6281 16.5625 77.8156 15.7031 78.0344 14.8906C78.2531 14.0781 78.5031 13.2812 78.7844 12.5L79.675 10.0625C80.425 7.9375 80.9406 6.03125 81.2219 4.34375C81.5031 2.65625 81.8 1.65625 82.1125 1.34375C82.425 1 82.7688 0.828125 83.1438 0.828125C83.7688 0.828125 84.5813 1.48438 85.5813 2.79688C86.0813 3.39062 86.8156 3.71875 87.7844 3.78125C88.7844 3.8125 89.7375 3.82812 90.6438 3.82812H138.081C140.05 3.82812 141.534 3.48438 142.534 2.79688C143.534 2.10938 144.222 1.60938 144.597 1.29688C144.972 0.984375 145.284 0.828125 145.534 0.828125C145.784 0.828125 146.003 0.84375 146.191 0.875C146.409 0.90625 146.613 0.984375 146.8 1.10938C147.331 1.42188 147.363 2.125 146.894 3.21875C146.456 4.28125 145.956 5.65625 145.394 7.34375C144.831 9 144.316 10.625 143.847 12.2188C143.003 15.125 142.409 17.375 142.066 18.9688C141.628 21.1562 141.019 22.25 140.238 22.25C139.425 22.25 138.925 21.7656 138.738 20.7969C138.581 19.7969 138.394 18.9219 138.175 18.1719C137.956 17.3906 137.675 16.6875 137.331 16.0625C135.206 12.3125 128.613 10.4375 117.55 10.4375V61.25C117.55 65.375 117.8 68.125 118.3 69.5C118.831 70.875 119.441 71.8281 120.128 72.3594C120.816 72.8594 121.55 73.1094 122.331 73.1094C123.144 73.1094 123.738 73.0938 124.113 73.0625C125.019 72.9375 125.675 72.8438 126.081 72.7812C126.488 72.7188 126.925 72.6875 127.394 72.6875C127.894 72.6875 128.3 72.9375 128.613 73.4375C128.925 73.9062 129.081 74.3281 129.081 74.7031C129.081 75.0469 128.988 75.3906 128.8 75.7344C128.613 76.0781 128.316 76.3906 127.909 76.6719C126.909 77.3594 125.691 77.7031 124.253 77.7031C122.847 77.7031 121.613 77.6562 120.55 77.5625C119.519 77.5 118.55 77.4375 117.644 77.375L114.925 77.0938C114.05 77.0312 113.097 77 112.066 77C111.034 77 110.081 77.0312 109.206 77.0938L106.488 77.375C103.769 77.5938 101.769 77.7031 100.488 77.7031C99.2375 77.7031 98.3 77.5938 97.675 77.375C97.0813 77.1875 96.5813 76.9531 96.175 76.6719C95.3938 76.1094 95.0031 75.5469 95.0031 74.9844C95.0031 74.4219 95.1594 73.9062 95.4719 73.4375C95.7844 72.9375 96.1906 72.6875 96.6906 72.6875C97.1906 72.6875 97.5969 72.7188 97.9094 72.7812C98.2531 72.8125 98.5813 72.8438 98.8938 72.875C99.8938 73.0312 100.816 73.1094 101.659 73.1094C102.503 73.1094 103.269 72.8594 103.956 72.3594C104.644 71.8594 105.175 71.1094 105.55 70.1094C106.206 68.3594 106.534 65.4062 106.534 61.25V10.3906C100.347 10.3906 95.8938 10.8281 93.175 11.7031C92.7688 11.8281 91.9875 12.0312 90.8313 12.3125C89.675 12.5938 88.3625 13.2969 86.8938 14.4219C85.425 15.5156 84.1281 16.6406 83.0031 17.7969C81.8781 18.9219 80.925 19.9219 80.1438 20.7969C79.3938 21.6719 78.8156 22.1094 78.4094 22.1094Z"/>
<path d="M177.991 64.625C177.991 68.8438 179.459 70.9531 182.397 70.9531H192.194C199.913 70.9531 205.709 69.2188 209.584 65.75C210.709 64.7188 211.772 63.6562 212.772 62.5625L214.413 60.7812C215.444 59.75 216.131 59.2031 216.475 59.1406C216.85 59.0781 217.163 59.0312 217.413 59C219.038 58.9062 218.928 60.6562 217.084 64.25C215.209 68 213.647 72.25 212.397 77H173.303C172.022 77 170.913 77.0312 169.975 77.0938L164.538 77.5625C163.6 77.6562 162.6 77.7031 161.538 77.7031C160.506 77.7031 159.694 77.5938 159.1 77.375C158.538 77.1875 158.1 76.9531 157.788 76.6719C157.163 76.1406 156.85 75.5938 156.85 75.0312C156.85 74.4375 157.006 73.9219 157.319 73.4844C157.631 73.0156 158.084 72.7812 158.678 72.7812L161.678 73.1094C163.834 73.1094 165.288 72.1562 166.038 70.25C166.663 68.6875 166.975 65.7812 166.975 61.5312V19.2031C166.975 15.0469 166.678 12.3281 166.084 11.0469C165.522 9.76562 164.834 8.89062 164.022 8.42188C163.241 7.95312 162.225 7.71875 160.975 7.71875L158.678 8C158.084 8 157.631 7.79688 157.319 7.39062C157.006 6.98438 156.85 6.57812 156.85 6.17188C156.85 5.76562 156.913 5.40625 157.038 5.09375C157.194 4.75 157.444 4.4375 157.788 4.15625C158.569 3.46875 159.647 3.125 161.022 3.125C162.428 3.125 163.538 3.15625 164.35 3.21875L166.788 3.5C169.069 3.71875 171.069 3.82812 172.788 3.82812H211.553C211.772 6.10938 212.178 8.51562 212.772 11.0469L214.038 16.3438C214.256 17.375 214.366 18.1094 214.366 18.5469C214.366 19.4219 214.038 19.8594 213.381 19.8594C212.975 19.8594 212.225 19.25 211.131 18.0312L208.319 14.9375C206.569 13.0938 205.163 11.9375 204.1 11.4688C203.069 10.9688 202.131 10.625 201.288 10.4375C199.725 10.0938 197.647 9.92188 195.053 9.92188H182.397C180.709 9.92188 179.553 10.2812 178.928 11C178.303 11.7188 177.991 12.75 177.991 14.0938V34.0625C177.991 35.7188 179.366 36.5469 182.116 36.5469H193.694C195.881 36.5469 197.881 35.4531 199.694 33.2656C200.319 32.5156 200.788 31.7812 201.1 31.0625C201.413 30.3125 201.663 29.8125 201.85 29.5625C202.069 29.3125 202.366 29.1875 202.741 29.1875C203.741 29.1875 204.241 30.0625 204.241 31.8125L203.866 39.3594L204.241 47.2812C204.241 49.0312 203.741 49.9062 202.741 49.9062C202.366 49.9062 202.084 49.7812 201.897 49.5312C201.709 49.25 201.459 48.75 201.147 48.0312C200.834 47.2812 200.35 46.5469 199.694 45.8281C199.069 45.0781 198.413 44.4688 197.725 44C196.413 43.0625 195.069 42.5938 193.694 42.5938H182.069C180.756 42.5938 179.741 42.875 179.022 43.4375C178.334 44 177.991 44.6875 177.991 45.5V64.625Z"/>
<path d="M255.587 73.1094L258.587 72.8281C259.15 72.8281 259.587 73.0469 259.9 73.4844C260.244 73.9219 260.416 74.3281 260.416 74.7031C260.416 75.0469 260.337 75.3906 260.181 75.7344C260.056 76.0781 259.822 76.3906 259.478 76.6719C258.634 77.3594 257.525 77.7031 256.15 77.7031C254.806 77.7031 253.65 77.6562 252.681 77.5625C251.744 77.5 250.853 77.4219 250.009 77.3281C249.166 77.2656 248.322 77.1875 247.478 77.0938C246.634 77.0312 245.712 77 244.712 77C243.744 77 242.837 77.0312 241.994 77.0938L239.509 77.375C236.978 77.5938 235.134 77.7031 233.978 77.7031C232.853 77.7031 231.994 77.5938 231.4 77.375C230.837 77.1875 230.384 76.9531 230.041 76.6719C229.416 76.1719 229.103 75.625 229.103 75.0312C229.103 74.4375 229.259 73.9219 229.572 73.4844C229.916 73.0469 230.369 72.8281 230.931 72.8281L233.931 73.1094C236.056 73.1094 237.494 72.2656 238.244 70.5781C238.931 69.0781 239.275 66.2969 239.275 62.2344V19.25C239.275 15.0625 238.978 12.3438 238.384 11.0938C237.791 9.8125 237.103 8.9375 236.322 8.46875C235.541 8 234.525 7.76562 233.275 7.76562L230.931 8.04688C230.369 8.04688 229.916 7.84375 229.572 7.4375C229.259 7.03125 229.103 6.625 229.103 6.21875C229.103 5.8125 229.166 5.45312 229.291 5.14062C229.447 4.79688 229.697 4.48438 230.041 4.20312C230.884 3.51562 231.994 3.17188 233.369 3.17188C234.744 3.17188 235.869 3.20312 236.744 3.26562C237.619 3.32812 238.462 3.40625 239.275 3.5C241.119 3.71875 242.994 3.82812 244.9 3.82812C246.837 3.82812 248.712 3.75 250.525 3.59375C259.619 2.78125 265.775 2.375 268.994 2.375C272.244 2.375 275.478 2.96875 278.697 4.15625C281.947 5.3125 284.587 6.84375 286.619 8.75C290.525 12.4688 292.478 17.1875 292.478 22.9062C292.478 29.8438 289.962 35.2656 284.931 39.1719C280.4 42.6719 274.572 44.4219 267.447 44.4219H266.697C269.697 46.1406 272.119 48 273.962 50C277.119 53.375 279.712 56.7969 281.744 60.2656C283.775 63.7031 285.384 66.0781 286.572 67.3906C287.759 68.7031 288.869 69.7188 289.9 70.4375C291.65 71.625 293.478 72.2188 295.384 72.2188L298.056 71.6094C298.962 71.6719 299.525 71.9219 299.744 72.3594C299.994 72.9531 300.119 73.5312 300.119 74.0938C300.119 74.6562 299.962 75.125 299.65 75.5C299.369 75.875 298.931 76.2188 298.337 76.5312C295.869 77.7812 291.994 77.9844 286.712 77.1406C283.15 76.5781 280.025 75.0938 277.337 72.6875C274.587 70.2812 271.994 67.1562 269.556 63.3125C267.15 59.4688 265.244 56.3438 263.837 53.9375C262.462 51.5312 261.384 49.8281 260.603 48.8281C259.822 47.7969 258.947 46.9531 257.978 46.2969C256.072 45.0156 253.494 44.375 250.244 44.375V62.2344C250.244 66.2969 250.509 68.9219 251.041 70.1094C251.572 71.2969 252.181 72.0938 252.869 72.5C253.556 72.9062 254.462 73.1094 255.587 73.1094ZM258.634 39.5938L263.744 39.5469C271.275 39.5469 276.4 36.9375 279.119 31.7188C280.025 29.9375 280.478 27.8438 280.478 25.4375C280.478 23.0312 280.119 20.8438 279.4 18.875C278.681 16.9062 277.525 15.2188 275.931 13.8125C272.587 10.7812 267.556 9.26562 260.837 9.26562C256.619 9.26562 253.947 9.54688 252.822 10.1094C251.728 10.6719 251.025 11.3125 250.712 12.0312C250.4 12.7188 250.244 13.5938 250.244 14.6562V38.1875C252.369 39.125 255.166 39.5938 258.634 39.5938Z"/>
</mask>
<path d="M1.42188 22.1094C0.671875 22.1094 0.296875 21.5625 0.296875 20.4688C0.296875 19.375 0.359375 18.375 0.484375 17.4688C0.640625 16.5625 0.828125 15.7031 1.04688 14.8906C1.26562 14.0781 1.51562 13.2812 1.79688 12.5L2.6875 10.0625C3.4375 7.9375 3.95312 6.03125 4.23438 4.34375C4.51562 2.65625 4.8125 1.65625 5.125 1.34375C5.4375 1 5.78125 0.828125 6.15625 0.828125C6.78125 0.828125 7.59375 1.48438 8.59375 2.79688C9.09375 3.39062 9.82812 3.71875 10.7969 3.78125C11.7969 3.8125 12.75 3.82812 13.6562 3.82812H61.0938C63.0625 3.82812 64.5469 3.48438 65.5469 2.79688C66.5469 2.10938 67.2344 1.60938 67.6094 1.29688C67.9844 0.984375 68.2969 0.828125 68.5469 0.828125C68.7969 0.828125 69.0156 0.84375 69.2031 0.875C69.4219 0.90625 69.625 0.984375 69.8125 1.10938C70.3438 1.42188 70.375 2.125 69.9062 3.21875C69.4688 4.28125 68.9688 5.65625 68.4062 7.34375C67.8438 9 67.3281 10.625 66.8594 12.2188C66.0156 15.125 65.4219 17.375 65.0781 18.9688C64.6406 21.1562 64.0312 22.25 63.25 22.25C62.4375 22.25 61.9375 21.7656 61.75 20.7969C61.5938 19.7969 61.4062 18.9219 61.1875 18.1719C60.9688 17.3906 60.6875 16.6875 60.3438 16.0625C58.2188 12.3125 51.625 10.4375 40.5625 10.4375V61.25C40.5625 65.375 40.8125 68.125 41.3125 69.5C41.8438 70.875 42.4531 71.8281 43.1406 72.3594C43.8281 72.8594 44.5625 73.1094 45.3438 73.1094C46.1562 73.1094 46.75 73.0938 47.125 73.0625C48.0312 72.9375 48.6875 72.8438 49.0938 72.7812C49.5 72.7188 49.9375 72.6875 50.4062 72.6875C50.9062 72.6875 51.3125 72.9375 51.625 73.4375C51.9375 73.9062 52.0938 74.3281 52.0938 74.7031C52.0938 75.0469 52 75.3906 51.8125 75.7344C51.625 76.0781 51.3281 76.3906 50.9219 76.6719C49.9219 77.3594 48.7031 77.7031 47.2656 77.7031C45.8594 77.7031 44.625 77.6562 43.5625 77.5625C42.5312 77.5 41.5625 77.4375 40.6562 77.375L37.9375 77.0938C37.0625 77.0312 36.1094 77 35.0781 77C34.0469 77 33.0938 77.0312 32.2188 77.0938L29.5 77.375C26.7812 77.5938 24.7812 77.7031 23.5 77.7031C22.25 77.7031 21.3125 77.5938 20.6875 77.375C20.0938 77.1875 19.5938 76.9531 19.1875 76.6719C18.4062 76.1094 18.0156 75.5469 18.0156 74.9844C18.0156 74.4219 18.1719 73.9062 18.4844 73.4375C18.7969 72.9375 19.2031 72.6875 19.7031 72.6875C20.2031 72.6875 20.6094 72.7188 20.9219 72.7812C21.2656 72.8125 21.5938 72.8438 21.9062 72.875C22.9062 73.0312 23.8281 73.1094 24.6719 73.1094C25.5156 73.1094 26.2812 72.8594 26.9688 72.3594C27.6562 71.8594 28.1875 71.1094 28.5625 70.1094C29.2188 68.3594 29.5469 65.4062 29.5469 61.25V10.3906C23.3594 10.3906 18.9062 10.8281 16.1875 11.7031C15.7812 11.8281 15 12.0312 13.8438 12.3125C12.6875 12.5938 11.375 13.2969 9.90625 14.4219C8.4375 15.5156 7.14062 16.6406 6.01562 17.7969C4.89062 18.9219 3.9375 19.9219 3.15625 20.7969C2.40625 21.6719 1.82812 22.1094 1.42188 22.1094Z" stroke="#26C0AB" stroke-width="4" mask="url(#path-1-inside-1)"/>
<path d="M78.4094 22.1094C77.6594 22.1094 77.2844 21.5625 77.2844 20.4688C77.2844 19.375 77.3469 18.375 77.4719 17.4688C77.6281 16.5625 77.8156 15.7031 78.0344 14.8906C78.2531 14.0781 78.5031 13.2812 78.7844 12.5L79.675 10.0625C80.425 7.9375 80.9406 6.03125 81.2219 4.34375C81.5031 2.65625 81.8 1.65625 82.1125 1.34375C82.425 1 82.7688 0.828125 83.1438 0.828125C83.7688 0.828125 84.5813 1.48438 85.5813 2.79688C86.0813 3.39062 86.8156 3.71875 87.7844 3.78125C88.7844 3.8125 89.7375 3.82812 90.6438 3.82812H138.081C140.05 3.82812 141.534 3.48438 142.534 2.79688C143.534 2.10938 144.222 1.60938 144.597 1.29688C144.972 0.984375 145.284 0.828125 145.534 0.828125C145.784 0.828125 146.003 0.84375 146.191 0.875C146.409 0.90625 146.613 0.984375 146.8 1.10938C147.331 1.42188 147.363 2.125 146.894 3.21875C146.456 4.28125 145.956 5.65625 145.394 7.34375C144.831 9 144.316 10.625 143.847 12.2188C143.003 15.125 142.409 17.375 142.066 18.9688C141.628 21.1562 141.019 22.25 140.238 22.25C139.425 22.25 138.925 21.7656 138.738 20.7969C138.581 19.7969 138.394 18.9219 138.175 18.1719C137.956 17.3906 137.675 16.6875 137.331 16.0625C135.206 12.3125 128.613 10.4375 117.55 10.4375V61.25C117.55 65.375 117.8 68.125 118.3 69.5C118.831 70.875 119.441 71.8281 120.128 72.3594C120.816 72.8594 121.55 73.1094 122.331 73.1094C123.144 73.1094 123.738 73.0938 124.113 73.0625C125.019 72.9375 125.675 72.8438 126.081 72.7812C126.488 72.7188 126.925 72.6875 127.394 72.6875C127.894 72.6875 128.3 72.9375 128.613 73.4375C128.925 73.9062 129.081 74.3281 129.081 74.7031C129.081 75.0469 128.988 75.3906 128.8 75.7344C128.613 76.0781 128.316 76.3906 127.909 76.6719C126.909 77.3594 125.691 77.7031 124.253 77.7031C122.847 77.7031 121.613 77.6562 120.55 77.5625C119.519 77.5 118.55 77.4375 117.644 77.375L114.925 77.0938C114.05 77.0312 113.097 77 112.066 77C111.034 77 110.081 77.0312 109.206 77.0938L106.488 77.375C103.769 77.5938 101.769 77.7031 100.488 77.7031C99.2375 77.7031 98.3 77.5938 97.675 77.375C97.0813 77.1875 96.5813 76.9531 96.175 76.6719C95.3938 76.1094 95.0031 75.5469 95.0031 74.9844C95.0031 74.4219 95.1594 73.9062 95.4719 73.4375C95.7844 72.9375 96.1906 72.6875 96.6906 72.6875C97.1906 72.6875 97.5969 72.7188 97.9094 72.7812C98.2531 72.8125 98.5813 72.8438 98.8938 72.875C99.8938 73.0312 100.816 73.1094 101.659 73.1094C102.503 73.1094 103.269 72.8594 103.956 72.3594C104.644 71.8594 105.175 71.1094 105.55 70.1094C106.206 68.3594 106.534 65.4062 106.534 61.25V10.3906C100.347 10.3906 95.8938 10.8281 93.175 11.7031C92.7688 11.8281 91.9875 12.0312 90.8313 12.3125C89.675 12.5938 88.3625 13.2969 86.8938 14.4219C85.425 15.5156 84.1281 16.6406 83.0031 17.7969C81.8781 18.9219 80.925 19.9219 80.1438 20.7969C79.3938 21.6719 78.8156 22.1094 78.4094 22.1094Z" stroke="#26C0AB" stroke-width="4" mask="url(#path-1-inside-1)"/>
<path d="M177.991 64.625C177.991 68.8438 179.459 70.9531 182.397 70.9531H192.194C199.913 70.9531 205.709 69.2188 209.584 65.75C210.709 64.7188 211.772 63.6562 212.772 62.5625L214.413 60.7812C215.444 59.75 216.131 59.2031 216.475 59.1406C216.85 59.0781 217.163 59.0312 217.413 59C219.038 58.9062 218.928 60.6562 217.084 64.25C215.209 68 213.647 72.25 212.397 77H173.303C172.022 77 170.913 77.0312 169.975 77.0938L164.538 77.5625C163.6 77.6562 162.6 77.7031 161.538 77.7031C160.506 77.7031 159.694 77.5938 159.1 77.375C158.538 77.1875 158.1 76.9531 157.788 76.6719C157.163 76.1406 156.85 75.5938 156.85 75.0312C156.85 74.4375 157.006 73.9219 157.319 73.4844C157.631 73.0156 158.084 72.7812 158.678 72.7812L161.678 73.1094C163.834 73.1094 165.288 72.1562 166.038 70.25C166.663 68.6875 166.975 65.7812 166.975 61.5312V19.2031C166.975 15.0469 166.678 12.3281 166.084 11.0469C165.522 9.76562 164.834 8.89062 164.022 8.42188C163.241 7.95312 162.225 7.71875 160.975 7.71875L158.678 8C158.084 8 157.631 7.79688 157.319 7.39062C157.006 6.98438 156.85 6.57812 156.85 6.17188C156.85 5.76562 156.913 5.40625 157.038 5.09375C157.194 4.75 157.444 4.4375 157.788 4.15625C158.569 3.46875 159.647 3.125 161.022 3.125C162.428 3.125 163.538 3.15625 164.35 3.21875L166.788 3.5C169.069 3.71875 171.069 3.82812 172.788 3.82812H211.553C211.772 6.10938 212.178 8.51562 212.772 11.0469L214.038 16.3438C214.256 17.375 214.366 18.1094 214.366 18.5469C214.366 19.4219 214.038 19.8594 213.381 19.8594C212.975 19.8594 212.225 19.25 211.131 18.0312L208.319 14.9375C206.569 13.0938 205.163 11.9375 204.1 11.4688C203.069 10.9688 202.131 10.625 201.288 10.4375C199.725 10.0938 197.647 9.92188 195.053 9.92188H182.397C180.709 9.92188 179.553 10.2812 178.928 11C178.303 11.7188 177.991 12.75 177.991 14.0938V34.0625C177.991 35.7188 179.366 36.5469 182.116 36.5469H193.694C195.881 36.5469 197.881 35.4531 199.694 33.2656C200.319 32.5156 200.788 31.7812 201.1 31.0625C201.413 30.3125 201.663 29.8125 201.85 29.5625C202.069 29.3125 202.366 29.1875 202.741 29.1875C203.741 29.1875 204.241 30.0625 204.241 31.8125L203.866 39.3594L204.241 47.2812C204.241 49.0312 203.741 49.9062 202.741 49.9062C202.366 49.9062 202.084 49.7812 201.897 49.5312C201.709 49.25 201.459 48.75 201.147 48.0312C200.834 47.2812 200.35 46.5469 199.694 45.8281C199.069 45.0781 198.413 44.4688 197.725 44C196.413 43.0625 195.069 42.5938 193.694 42.5938H182.069C180.756 42.5938 179.741 42.875 179.022 43.4375C178.334 44 177.991 44.6875 177.991 45.5V64.625Z" stroke="#26C0AB" stroke-width="4" mask="url(#path-1-inside-1)"/>
<path d="M255.587 73.1094L258.587 72.8281C259.15 72.8281 259.587 73.0469 259.9 73.4844C260.244 73.9219 260.416 74.3281 260.416 74.7031C260.416 75.0469 260.337 75.3906 260.181 75.7344C260.056 76.0781 259.822 76.3906 259.478 76.6719C258.634 77.3594 257.525 77.7031 256.15 77.7031C254.806 77.7031 253.65 77.6562 252.681 77.5625C251.744 77.5 250.853 77.4219 250.009 77.3281C249.166 77.2656 248.322 77.1875 247.478 77.0938C246.634 77.0312 245.712 77 244.712 77C243.744 77 242.837 77.0312 241.994 77.0938L239.509 77.375C236.978 77.5938 235.134 77.7031 233.978 77.7031C232.853 77.7031 231.994 77.5938 231.4 77.375C230.837 77.1875 230.384 76.9531 230.041 76.6719C229.416 76.1719 229.103 75.625 229.103 75.0312C229.103 74.4375 229.259 73.9219 229.572 73.4844C229.916 73.0469 230.369 72.8281 230.931 72.8281L233.931 73.1094C236.056 73.1094 237.494 72.2656 238.244 70.5781C238.931 69.0781 239.275 66.2969 239.275 62.2344V19.25C239.275 15.0625 238.978 12.3438 238.384 11.0938C237.791 9.8125 237.103 8.9375 236.322 8.46875C235.541 8 234.525 7.76562 233.275 7.76562L230.931 8.04688C230.369 8.04688 229.916 7.84375 229.572 7.4375C229.259 7.03125 229.103 6.625 229.103 6.21875C229.103 5.8125 229.166 5.45312 229.291 5.14062C229.447 4.79688 229.697 4.48438 230.041 4.20312C230.884 3.51562 231.994 3.17188 233.369 3.17188C234.744 3.17188 235.869 3.20312 236.744 3.26562C237.619 3.32812 238.462 3.40625 239.275 3.5C241.119 3.71875 242.994 3.82812 244.9 3.82812C246.837 3.82812 248.712 3.75 250.525 3.59375C259.619 2.78125 265.775 2.375 268.994 2.375C272.244 2.375 275.478 2.96875 278.697 4.15625C281.947 5.3125 284.587 6.84375 286.619 8.75C290.525 12.4688 292.478 17.1875 292.478 22.9062C292.478 29.8438 289.962 35.2656 284.931 39.1719C280.4 42.6719 274.572 44.4219 267.447 44.4219H266.697C269.697 46.1406 272.119 48 273.962 50C277.119 53.375 279.712 56.7969 281.744 60.2656C283.775 63.7031 285.384 66.0781 286.572 67.3906C287.759 68.7031 288.869 69.7188 289.9 70.4375C291.65 71.625 293.478 72.2188 295.384 72.2188L298.056 71.6094C298.962 71.6719 299.525 71.9219 299.744 72.3594C299.994 72.9531 300.119 73.5312 300.119 74.0938C300.119 74.6562 299.962 75.125 299.65 75.5C299.369 75.875 298.931 76.2188 298.337 76.5312C295.869 77.7812 291.994 77.9844 286.712 77.1406C283.15 76.5781 280.025 75.0938 277.337 72.6875C274.587 70.2812 271.994 67.1562 269.556 63.3125C267.15 59.4688 265.244 56.3438 263.837 53.9375C262.462 51.5312 261.384 49.8281 260.603 48.8281C259.822 47.7969 258.947 46.9531 257.978 46.2969C256.072 45.0156 253.494 44.375 250.244 44.375V62.2344C250.244 66.2969 250.509 68.9219 251.041 70.1094C251.572 71.2969 252.181 72.0938 252.869 72.5C253.556 72.9062 254.462 73.1094 255.587 73.1094ZM258.634 39.5938L263.744 39.5469C271.275 39.5469 276.4 36.9375 279.119 31.7188C280.025 29.9375 280.478 27.8438 280.478 25.4375C280.478 23.0312 280.119 20.8438 279.4 18.875C278.681 16.9062 277.525 15.2188 275.931 13.8125C272.587 10.7812 267.556 9.26562 260.837 9.26562C256.619 9.26562 253.947 9.54688 252.822 10.1094C251.728 10.6719 251.025 11.3125 250.712 12.0312C250.4 12.7188 250.244 13.5938 250.244 14.6562V38.1875C252.369 39.125 255.166 39.5938 258.634 39.5938Z" stroke="#26C0AB" stroke-width="4" mask="url(#path-1-inside-1)"/>
</svg>
